<svg width="620" height="513" viewBox="0 0 620 513" fill="none" xmlns="http://www.w3.org/2000/svg">
<path d="M512.264 124.884C504.485 129.131 500.379 139.427 500.163 155.122C499.947 167.073 501.604 167.217 511.183 156.274C522.059 143.818 526.597 130.715 521.627 125.82C519.682 123.876 514.929 123.372 512.264 124.884ZM518.386 127.619C520.186 129.419 520.33 134.027 518.746 138.419C517.377 142.307 512.192 149.938 507.582 154.978L503.909 158.937L504.269 151.378C504.917 139.139 507.87 131.435 513.272 127.835C516.225 125.82 516.585 125.82 518.386 127.619Z" fill="#1F2937"/>
<path d="M472.793 150.874C467.823 155.77 468.471 169.809 474.521 188.6C476.61 195.007 476.826 195.367 478.555 195.151C480.211 194.935 480.716 194.215 482.156 189.896C485.109 181.256 486.838 172.833 486.91 166.497C487.126 155.554 484.245 150.154 477.835 149.434C475.026 149.074 474.305 149.29 472.793 150.874ZM479.707 153.394C483.669 157.786 484.173 167.145 481.148 179.528C480.067 183.848 478.987 187.376 478.699 187.376C478.123 187.376 476.682 182.84 474.737 174.777C473.081 167.937 473.081 157.498 474.665 154.402C476.106 151.81 477.907 151.45 479.707 153.394Z" fill="#1F2937"/>
<path d="M508.662 180.824C503.333 183.344 497.931 190.111 492.168 201.703C488.783 208.326 483.813 220.061 483.813 221.285C483.813 223.949 495.482 218.622 504.701 211.782C515.361 203.862 520.115 196.663 520.187 188.311C520.187 184.424 519.899 183.56 518.314 181.976C515.865 179.528 512.264 179.096 508.662 180.824ZM515.217 183.848C518.746 187.735 515.289 197.527 507.798 204.798C503.261 209.262 490.08 218.046 489.72 216.966C489.287 215.742 497.787 198.751 501.604 193.063C505.637 187.088 510.463 182.336 512.48 182.336C513.272 182.336 514.425 182.984 515.217 183.848Z" fill="#1F2937"/>
<path d="M458.82 247.78C447.872 249.58 438.797 254.044 431.234 261.531C425.328 267.363 422.591 272.475 422.591 277.946C422.591 282.914 424.248 286.37 427.777 288.962C433.899 293.353 442.038 293.137 448.232 288.458L451.402 286.01L451.834 288.962C452.41 292.418 454.715 296.089 457.164 297.313C461.629 299.545 469.624 297.529 473.297 293.137C475.098 291.05 475.098 291.05 475.89 292.49C476.539 293.713 476.395 295.009 475.17 298.465C468.328 318.84 441.39 339.215 402.28 353.686C394.141 356.638 391.404 358.725 395.581 358.725C398.606 358.725 415.028 352.246 426.913 346.414C452.77 333.743 473.658 315.384 478.339 301.273L479.564 297.745L483.813 297.817C486.334 297.817 488.423 297.529 488.999 296.953C491.808 294.145 491.592 297.097 488.423 306.673C480.572 330.287 465.519 349.942 444.991 363.621C439.589 367.221 439.085 367.725 440.454 368.301C441.606 368.805 442.902 368.373 446.36 366.285C461.701 356.997 477.475 339.575 486.046 322.656C488.999 316.752 494.617 301.201 494.617 298.897C494.617 297.169 495.482 297.169 497.138 298.969C500.451 302.641 507.438 302.281 511.615 298.177L513.992 295.873L515.001 298.393C515.577 299.833 516.441 301.201 516.873 301.417C517.882 302.065 517.882 310.56 516.945 317.328C513.776 339.287 502.036 359.085 484.966 371.253C479.924 374.852 479.492 375.572 481.436 376.292C483.021 376.94 489.143 372.693 495.986 366.285C511.183 352.03 520.114 332.735 521.051 312.432L521.483 304.009H525.012C528.974 304.009 533.511 302.065 535.24 299.545C538.121 295.513 534.952 294.793 531.134 298.609C529.046 300.697 528.109 301.129 525.444 301.129C522.851 301.129 521.843 300.697 520.114 298.897C518.098 296.809 518.026 296.449 518.026 289.898C518.026 283.13 518.026 283.058 516.297 283.274C514.929 283.418 514.352 284.282 513.344 287.594C512.048 291.842 509.743 295.657 507.294 297.673C503.332 300.913 498.435 297.529 497.642 290.978C497.354 288.818 497.354 285.29 497.57 283.13C497.786 280.97 497.858 278.954 497.714 278.594C497.21 277.73 494.617 278.018 494.329 278.954C494.185 279.458 493.465 282.122 492.817 284.858C491.232 290.978 487.559 295.369 483.957 295.369C480.644 295.369 479.276 292.849 478.771 285.722C478.483 280.682 478.195 279.89 477.115 279.89C476.179 279.89 475.386 280.97 474.378 283.85C470.921 293.713 462.854 298.537 457.956 293.641C456.155 291.842 456.083 291.338 456.011 284.354C456.011 278.234 455.795 276.938 454.859 276.794C454.211 276.65 453.13 277.442 452.338 278.522C447.08 286.154 440.958 290.258 436.204 289.322C430.082 288.098 425.616 282.194 426.481 276.435C428.065 266.643 440.454 255.556 454.283 251.74C460.765 249.94 484.678 249.868 494.401 251.74C507.294 254.116 516.513 257.572 525.3 263.403C536.752 270.963 542.731 279.602 544.819 291.482C548.637 313.584 535.168 347.998 514.929 367.653C511.111 371.325 510.823 372.405 513.56 372.405C516.225 372.405 525.877 361.749 532.287 351.814C548.781 326.255 553.967 295.297 544.603 278.162C536.896 263.979 518.818 253.324 495.337 249.148C486.262 247.564 465.303 246.772 458.82 247.78Z" fill="#1F2937"/>
<path d="M141.807 156.548C125.305 159.035 116.922 161.392 105.396 166.825C94.7872 171.866 87.5181 176.972 79.2011 185.219C67.6098 196.675 61.2575 207.672 57.1972 223.514C55.7565 229.012 55.2326 232.809 55.1671 237.587L55.0361 244.133L84.0472 244.33L112.993 244.461V239.748C113.058 221.092 123.995 205.839 140.891 200.864C145.606 199.49 155.691 199.293 160.799 200.537C166.103 201.846 173.307 205.316 177.826 208.785C181.166 211.338 188.959 219.913 188.959 221.026C188.959 221.222 186.798 221.484 184.113 221.681C172.783 222.401 164.925 230.78 165.514 241.384L165.71 244.788L220.655 244.984C260.668 245.05 275.795 244.919 276.45 244.395C277.891 243.217 277.629 234.314 276.057 229.274C272.783 218.604 262.829 213.956 252.94 218.473L249.207 220.175V216.117C249.142 207.149 245.737 197.264 240.694 191.831C234.997 185.678 225.239 182.928 217.118 185.154L213.517 186.136L212.272 184.368C209.849 181.03 201.074 172.717 196.883 169.902C186.928 163.159 173.831 158.381 161.126 156.81C155.56 156.155 145.344 155.959 141.807 156.548ZM169.181 159.952C179.135 162.439 189.483 167.414 196.883 173.24C204.086 178.87 211.683 187.445 209.98 188.034C209.522 188.165 208.147 189.213 206.902 190.26L204.676 192.224L201.598 189.671C187.452 178.15 172.063 171.8 153.464 169.771C137.616 168.134 120.131 171.931 106.313 180.114C86.4703 191.962 72.1939 214.284 69.9019 237.26L69.4434 242.17L64.2699 242.366C61.3884 242.497 58.8344 242.301 58.507 241.973C57.6556 241.122 59.0309 229.34 60.6681 223.121C67.0204 198.704 82.8029 180.179 106.706 168.854C117.053 163.945 129.299 160.148 139.45 158.708C146.326 157.726 163.025 158.446 169.181 159.952ZM154.25 172.062C168.133 173.044 185.684 180.375 198.258 190.522L202.711 194.122L200.353 197.657L197.93 201.257L194.918 198.704C183.196 188.951 170.491 184.696 153.268 184.761C136.634 184.827 120.589 189.867 108.802 198.77C98.2581 206.69 90.1376 220.633 88.1075 234.314C87.649 237.195 87.1906 240.206 87.0597 240.991C86.7977 242.432 86.5357 242.497 79.856 242.497H72.8488L73.3072 238.373C74.7479 225.805 78.8082 214.48 85.5534 204.268C98.3235 185.023 117.577 173.568 139.843 171.866C142.921 171.604 146.326 171.473 147.374 171.604C148.487 171.669 151.565 171.866 154.25 172.062ZM231.264 188.231C235.258 189.867 239.122 194.057 241.676 199.359C244.165 204.661 245.278 210.16 245.475 218.931C245.606 226.263 246.195 226.787 250.386 223.252C255.756 218.8 262.174 217.753 266.169 220.764C268.854 222.728 271.997 227.245 272.848 230.256C273.307 231.762 273.7 235.035 273.7 237.587L273.765 242.17L221.113 242.366L168.461 242.497L168.919 239.42C169.509 234.904 172.456 229.47 175.665 227.048C180.511 223.383 186.405 222.794 194.656 225.216C196.424 225.739 196.424 225.739 197.407 217.949C199.633 200.995 208.147 188.754 219.018 186.856C222.881 186.136 227.793 186.725 231.264 188.231ZM168.33 188.165C176.778 189.998 186.143 194.777 192.102 200.275C196.49 204.334 196.686 204.727 196.097 206.363C195.114 208.916 193.543 216.706 193.543 218.997C193.543 221.419 192.822 221.419 191.382 218.997C185.684 209.309 173.045 200.733 160.799 198.246C145.999 195.3 129.299 200.537 119.869 211.273C114.106 217.819 109.129 231.107 109.064 240.009V242.497H99.8298H90.5305L90.9889 238.242C91.5783 232.416 94.2633 223.448 97.0138 218.277C107.557 198.115 127.662 186.987 153.595 186.921C160.013 186.921 164.008 187.249 168.33 188.165Z" fill="#1F2937"/>
<path d="M212.31 78.6646C211.065 78.3658 209.926 79.087 208.926 80.6898C207.76 82.5597 207.584 86.5829 208.412 92.8213C209.106 98.3402 209.778 98.7064 213.699 95.9035C215.3 94.7814 217.868 92.619 219.444 91.1108C222.064 88.6099 222.254 88.3046 222.553 86.6359C222.804 85.0436 222.67 84.7482 221.448 83.9871C220.035 83.107 217.709 83.353 216.322 84.5559C215.36 85.334 214.988 84.996 215.205 83.542C215.357 82.3644 214.218 79.4296 213.407 79.0303C213.216 78.9113 212.686 78.7404 212.31 78.6646ZM212.608 85.1563C212.226 88.5744 212.328 89.4322 212.986 89.7365C213.606 90.0169 214.331 89.6204 215.898 88.2124C218.203 86.0455 219.771 85.0616 220.305 85.3946C221.222 85.9655 217.721 89.8784 213.148 93.3875L210.904 95.1157L210.39 92.1992C209.607 87.4193 210.481 80.9167 212.007 80.5954C212.96 80.3416 213.071 81.0994 212.608 85.1563Z" fill="#1F2937"/>
<path d="M201.287 103.483C200.401 103.885 199.834 104.538 199.249 105.817L198.455 107.6L196.259 106.02C194.369 104.631 193.902 104.446 192.562 104.724C189.721 105.285 189.262 108.231 191.431 111.808C192.573 113.632 195.887 117.075 199.123 119.621L201.133 121.244L201.799 120.175C202.608 118.878 204.623 112.926 205.267 109.937C206.221 105.603 204.118 102.174 201.287 103.483ZM202.56 110.794C202.095 112.729 201.335 115.223 200.831 116.287C199.965 118.185 199.918 118.261 198.963 117.667C197.474 116.739 193.859 112.42 192.913 110.453C191.909 108.237 192.179 106.869 193.737 106.41C195.172 105.979 195.492 106.231 196.954 108.732C197.614 109.884 198.497 111.018 198.956 111.303C199.605 111.708 199.776 111.603 200.156 110.568C200.399 109.924 201.098 108.293 201.768 106.962L203.005 104.554L203.221 105.907C203.356 106.627 203.049 108.82 202.56 110.794Z" fill="#1F2937"/>
<path d="M218.683 134.244C217.954 134.479 217.125 135.128 216.554 136.044C215.673 137.456 215.587 137.509 214.838 136.671C213.405 135.142 211.812 134.467 210.515 134.931C206.945 136.151 208.209 140.33 214.001 146.429C215.51 148.005 216.999 149.356 217.338 149.409C218.192 149.57 221.699 143.86 222.497 140.965C223.598 136.989 221.567 133.445 218.683 134.244ZM219.669 141.164C219.108 142.828 218.21 144.865 217.662 145.743C216.734 147.231 216.672 147.245 215.823 146.398C213.865 144.436 211.787 141.393 211.303 139.873C210.188 136.476 212.38 135.086 213.862 138.235C215.201 141.189 215.578 141.689 216.232 141.831C216.609 141.907 216.975 141.659 217.061 141.182C217.331 139.813 218.967 136.594 219.687 136.035C220.358 135.553 220.411 135.639 220.56 136.845C220.656 137.54 220.268 139.524 219.669 141.164Z" fill="#1F2937"/>
<path d="M128.199 15.5081C127.799 16.175 125.197 27.246 125.13 28.4465C125.13 28.7799 125.931 28.9133 126.931 28.7799C128.599 28.5799 128.8 28.1797 129.934 23.2444C131.669 15.5081 131.669 15.308 130.001 15.0412C129.267 14.9078 128.399 15.1079 128.199 15.5081Z" fill="#1F2937" stroke="#1F2937" stroke-width="0.888031"/>
<path d="M95.1055 19.2427C95.1055 19.5095 96.5066 22.0438 98.2414 24.9783C100.71 28.9799 101.778 30.2471 102.912 30.2471C103.712 30.2471 104.513 30.047 104.647 29.7135C104.847 29.4468 103.579 26.9791 101.844 24.2447C99.3756 20.2431 98.3748 19.1761 96.9069 19.0427C95.9061 18.9093 95.1055 19.0427 95.1055 19.2427Z" fill="#1F2937" stroke="#1F2937" stroke-width="0.888031"/>
<path d="M149.95 33.5817C146.881 35.7159 144.412 37.7167 144.412 38.0501C144.412 38.3169 145.146 38.6504 145.947 38.7837C147.548 38.9171 157.823 31.9811 158.357 30.3804C158.957 28.4464 155.154 29.9136 149.95 33.5817Z" fill="#1F2937" stroke="#1F2937" stroke-width="0.888031"/>
<path d="M114.521 44.6526C108.449 46.2533 104.313 50.1881 101.711 56.724C100.443 59.9253 100.176 61.8594 100.176 68.2619C100.109 75.0646 100.31 76.3317 101.777 79.2662C105.647 87.136 113.053 91.7378 122.127 91.7378C136.873 91.8712 146.948 82.9343 145.546 71.063C144.279 60.1254 133.804 53.3894 123.061 56.4573C116.99 58.258 113.587 62.7931 113.587 69.0622C113.587 72.0634 113.921 73.3972 115.322 75.5314C119.258 81.4671 126.664 82.4008 130.801 77.5322C133.537 74.2643 132.736 68.9288 129.533 68.9288C127.332 68.9288 127.131 69.4624 128.332 71.5965C129.2 73.1305 129.266 73.7974 128.599 75.198C127.865 76.7986 127.465 76.932 123.862 76.932C120.326 76.932 119.859 76.7319 118.725 75.1313C117.19 72.797 116.723 67.5283 117.79 64.9273C119.659 60.4588 126.131 56.9908 130.668 57.9912C133.937 58.6581 137.607 61.3258 139.608 64.327C142.21 68.2619 142.611 74.9312 140.476 79.1995C137.34 85.7354 130.401 89.6036 121.86 89.6036C114.054 89.6036 108.783 86.0689 105.38 78.5993C102.378 71.93 102.778 62.9932 106.381 55.1901C109.65 48.1207 114.054 45.9865 124.329 46.3199C131.668 46.5867 133.47 45.653 127.799 44.4525C122.795 43.4521 118.791 43.5188 114.521 44.6526Z" fill="#1F2937" stroke="#1F2937" stroke-width="0.888031"/>
<path d="M73.0879 49.188C73.0879 50.6552 73.4882 50.7219 82.2954 51.2555C88.6339 51.5889 89.7682 51.5222 89.7682 50.6552C89.7682 49.188 89.4346 49.1213 80.961 48.5877C73.9553 48.1876 73.0879 48.2543 73.0879 49.188Z" fill="#1F2937" stroke="#1F2937" stroke-width="0.888031"/>
<path d="M166.964 50.9887C166.297 51.3889 163.494 52.1225 160.692 52.5893C155.421 53.523 154.554 53.9232 155.555 54.9236C156.956 56.3241 171.167 52.9895 171.167 51.1888C171.167 50.055 168.699 49.9883 166.964 50.9887Z" fill="#1F2937" stroke="#1F2937" stroke-width="0.888031"/>
<path d="M159.158 81.2673C158.558 82.0009 158.758 82.401 160.359 83.2014C164.229 85.2021 172.569 88.27 174.17 88.27C176.172 88.27 177.039 87.0695 175.371 86.536C173.903 86.0692 165.63 82.8012 162.361 81.334C160.292 80.467 159.825 80.467 159.158 81.2673Z" fill="#1F2937" stroke="#1F2937" stroke-width="0.888031"/>
<path d="M84.7635 84.8686C83.2956 85.5355 80.0263 86.6026 77.4242 87.2695C72.2866 88.6034 70.9522 89.337 72.5535 89.9372C74.6886 90.8042 91.102 85.6689 91.102 84.2016C91.102 83.2012 87.6325 83.6014 84.7635 84.8686Z" fill="#1F2937" stroke="#1F2937" stroke-width="0.888031"/>
<path d="M144.145 99.6078C143.612 100.408 145.146 101.742 151.284 106.077C155.088 108.678 156.022 109.078 157.289 108.478C158.691 107.878 158.557 107.744 155.421 105.61C153.62 104.343 150.951 102.342 149.416 101.142C146.614 98.8742 144.879 98.4073 144.145 99.6078Z" fill="#1F2937" stroke="#1F2937" stroke-width="0.888031"/>
<path d="M100.51 113.346C98.7755 119.082 98.5086 120.616 99.2425 121.016C100.444 121.816 100.844 121.749 101.578 120.749C102.512 119.615 106.382 107.077 105.915 106.61C105.714 106.41 104.914 106.277 104.113 106.277C102.845 106.277 102.378 107.21 100.51 113.346Z" fill="#1F2937" stroke="#1F2937" stroke-width="0.888031"/>
<path d="M126.064 108.611C125.53 109.878 126.798 116.147 128.199 119.482C128.933 121.216 129.467 121.683 130.601 121.483C132.336 121.216 132.336 121.283 130.334 113.613C129.2 109.545 128.466 107.877 127.599 107.744C126.998 107.611 126.264 108.011 126.064 108.611Z" fill="#1F2937" stroke="#1F2937" stroke-width="0.888031"/>
<path d="M56.5117 409.297H85.0457H141.7V417.731H56.5117V409.297Z" fill="#EA580C"/>
<path d="M85.1895 409.297L86.8764 367.968H144.653L141.701 409.297H85.1895Z" fill="#FB923C"/>
<path d="M91.5146 404.236L93.6233 373.45H138.748L136.217 404.236H91.5146Z" fill="#FFEDD5"/>
<rect x="187.056" y="375.553" width="166.5" height="18.5" fill="#F97316"/>
<rect x="187.056" y="394.053" width="16.4445" height="102.778" fill="#F97316"/>
<rect x="250.778" y="394.053" width="16.4445" height="102.778" fill="#F97316"/>
<rect x="353.556" y="394.053" width="16.4445" height="102.778" fill="#FDBA74"/>
<rect x="425.501" y="394.053" width="16.4445" height="102.778" fill="#FDBA74"/>
<rect x="353.556" y="375.553" width="88.389" height="18.5" fill="#FDBA74"/>
<rect y="342.664" width="76.0557" height="75.0279" fill="#F97316"/>
<rect y="417.692" width="76.0557" height="18.5" fill="#FDBA74"/>
<rect x="76.0557" y="417.692" width="49.3334" height="18.5" fill="#F97316"/>
<rect x="59.6113" y="436.192" width="16.4445" height="61.6668" fill="#F97316"/>
<rect y="436.192" width="16.4445" height="61.6668" fill="#F97316"/>
<rect x="108.944" y="436.192" width="16.4445" height="61.6668" fill="#F97316"/>
<path d="M609.392 449.57C598.259 450.244 598.568 432.419 600.115 423.423V421.314L614.032 423.001L619.092 435.653C620.498 440.01 620.526 448.895 609.392 449.57Z" fill="#1F2937"/>
<path d="M604.753 410.771C576.751 407.734 566.095 440.713 564.268 457.582H576.076C579.309 446.336 588.812 423.929 600.958 424.266C613.103 424.603 618.108 432.841 619.092 436.918C618.389 428.764 614.537 412.12 604.753 410.771Z" fill="#26A275"/>
<path d="M534.326 359.742C519.818 361.429 533.623 425.391 542.338 457.161H551.617C551.898 423.985 548.833 358.055 534.326 359.742Z" fill="#26A275"/>
<path d="M566.377 457.582H555.412C559.489 419.486 555.412 345.825 582.403 350.464C596.854 352.948 577.342 424.266 566.377 457.582Z" fill="#26A275"/>
<path d="M523.36 426.796C525.75 427.218 532.638 431.435 534.325 444.931C536.012 458.426 534.466 460.394 534.325 459.691" stroke="#1F2937" stroke-width="2.4" stroke-linecap="round"/>
<path d="M590.415 397.275C585.61 398.116 571.762 406.519 568.371 433.408C564.979 460.298 568.088 464.219 568.371 462.819" stroke="#1F2937" stroke-width="2.4" stroke-linecap="round"/>
<circle cx="596.741" cy="391.793" r="11.3866" fill="#EA580C"/>
<circle cx="516.613" cy="419.627" r="11.3866" fill="#EA580C"/>
<rect x="516.191" y="457.16" width="84.3449" height="41.329" rx="20.6645" fill="#FB923C"/>
<path d="M129.496 246.77C129.678 246.437 130.156 246.437 130.338 246.77C133.276 252.142 137.692 256.558 143.064 259.496C143.397 259.678 143.397 260.156 143.064 260.338C137.692 263.276 133.276 267.692 130.338 273.064C130.156 273.397 129.678 273.397 129.496 273.064C126.558 267.692 122.142 263.276 116.77 260.338C116.437 260.156 116.437 259.678 116.77 259.496C122.142 256.558 126.558 252.142 129.496 246.77Z" fill="#FB923C"/>
<path d="M444.496 88.7703C444.678 88.4373 445.156 88.4373 445.338 88.7703C448.276 94.1416 452.692 98.5579 458.064 101.496C458.397 101.678 458.397 102.156 458.064 102.338C452.692 105.276 448.276 109.692 445.338 115.064C445.156 115.397 444.678 115.397 444.496 115.064C441.558 109.692 437.142 105.276 431.77 102.338C431.437 102.156 431.437 101.678 431.77 101.496C437.142 98.5579 441.558 94.1416 444.496 88.7703Z" fill="#FB923C"/>
<path d="M445.806 439.959C435.685 432.649 417.972 410.016 431.468 404.112C443.952 398.65 448.055 425.62 445.806 439.959Z" fill="#339C73"/>
<path d="M450.867 439.115C451.289 430.4 454.325 413.728 463.097 416.764C471.869 419.8 458.599 432.93 450.867 439.115Z" fill="#339C73"/>
<path d="M445.807 448.815C446.228 444.035 446.313 433.464 443.276 429.416" stroke="#1F2937" stroke-width="2.4" stroke-linecap="round"/>
<path d="M450.221 448.393C449.832 445.692 449.754 439.717 452.554 437.428" stroke="#1F2937" stroke-width="2.4" stroke-linecap="round"/>
<path d="M476.592 448.815H420.503C418.957 465.543 412.912 499 450.445 499C478.111 499 479.404 465.543 476.592 448.815Z" fill="#EA580C"/>
<path fill-rule="evenodd" clip-rule="evenodd" d="M344.664 174.633C338.551 188.642 324.576 198.434 308.314 198.434C291.051 198.434 276.366 187.4 270.925 172.001C263.807 171.796 258.1 165.961 258.1 158.792C258.1 151.625 263.807 145.79 270.925 145.584C276.365 130.184 291.051 119.15 308.314 119.15C326.567 119.15 341.939 131.487 346.546 148.277C353.266 148.899 358.527 154.552 358.527 161.434C358.527 168.732 352.611 174.648 345.313 174.648C345.096 174.648 344.879 174.643 344.664 174.633Z" fill="#FED7AA"/>
<path fill-rule="evenodd" clip-rule="evenodd" d="M304.734 156.258C303.48 153.762 300.775 152.044 297.585 152.044C296.184 152.044 294.02 152.981 293.129 154.503C293.002 154.854 292.493 154.854 292.366 154.503C291.347 153.098 289.31 152.162 287.783 152.162C283.582 152.162 280.018 155.323 279.891 159.187V159.421C279.891 161.411 280.782 163.285 282.309 164.69V164.807C282.437 164.924 288.547 169.841 291.347 172.066C292.111 172.651 293.257 172.651 294.02 172.066C295.197 171.131 296.935 169.722 298.574 168.392L298.574 168.392C300.837 166.557 302.911 164.875 303.058 164.807V164.69C304.586 163.402 305.477 161.528 305.477 159.421V159.187C305.475 159.127 305.472 159.068 305.469 159.008C306.311 158.87 307.256 158.792 308.315 158.792C310.15 158.792 311.643 159.027 312.852 159.401C312.782 159.748 312.74 160.103 312.728 160.464V160.699C312.728 162.689 313.619 164.562 315.147 165.967V166.084C315.274 166.202 321.384 171.119 324.185 173.344C324.948 173.929 326.094 173.929 326.858 173.344C328.034 172.409 329.771 171 331.41 169.671L331.411 169.67C333.674 167.835 335.748 166.152 335.896 166.084V165.967C337.423 164.679 338.314 162.806 338.314 160.699V160.464C338.187 156.484 334.75 153.322 330.422 153.322C329.022 153.322 326.858 154.259 325.967 155.781C325.839 156.132 325.33 156.132 325.203 155.781C324.185 154.376 322.148 153.439 320.62 153.439C317.9 153.439 315.446 154.765 314.02 156.749C312.648 156.305 310.793 156.009 308.315 156.009C306.937 156.009 305.751 156.101 304.734 156.258Z" fill="#EA580C"/>
<path d="M301.706 174.509C302.147 175.39 304.085 177.152 308.313 177.152C312.542 177.152 314.48 175.39 314.92 174.509" stroke="#EA580C" stroke-width="2.4" stroke-linecap="round" stroke-linejoin="round"/>
<path d="M301.89 124.521C300.504 125.608 298.324 129.985 299.525 133.064C300.726 136.144 302.604 136.907 303.558 137.152" stroke="#EA580C" stroke-width="2.4" stroke-linecap="round"/>
<path d="M310.375 127.019C308.987 127.965 307.99 132.037 309.319 134.882C310.309 136.999 312.839 137.821 313.645 138.028" stroke="#EA580C" stroke-width="2.4" stroke-linecap="round"/>
<path d="M317.378 128.465C316.713 129.337 317.2 131.85 318.343 133.552C319.018 134.557 321.063 136.026 321.604 135.989" stroke="#EA580C" stroke-width="2.4" stroke-linecap="round"/>
<rect x="276.655" y="201.808" width="66.6325" height="147.604" rx="33.3162" fill="#FED7AA"/>
<rect x="177.128" y="312.3" width="271.591" height="63.2587" rx="31.6294" fill="#319E73"/>
<path d="M365.639 324.108H255.568" stroke="#1F2937" stroke-width="2.4"/>
<path d="M330.214 350.255C330.214 364.23 319.521 375.559 309.971 375.559C300.422 375.559 290.15 364.23 290.15 350.255C290.15 336.28 300.422 324.952 309.971 324.952C319.521 324.952 330.214 336.28 330.214 350.255Z" fill="#FDBA74"/>
<path d="M309.971 324.952V375.559" stroke="#1F2937" stroke-width="2.4"/>
<path d="M355.096 222.066C342.275 205.197 321.077 201.542 312.08 201.823L341.601 268.877C343.569 276.749 349.023 294.687 355.096 303.458C361.169 312.23 393.754 316.798 412.029 323.265L434.802 298.819L383.351 272.672C379.275 262.832 367.916 238.935 355.096 222.066Z" fill="#FED7AA"/>
<path fill-rule="evenodd" clip-rule="evenodd" d="M455.809 319.02C457.851 318.613 459.7 317.319 460.719 315.349L461.478 313.883C463.227 310.502 461.871 306.409 458.449 304.741L447.272 299.293C446.497 298.813 445.682 298.356 444.842 297.908C446.236 296.399 446.972 294.302 446.668 292.135L446.439 290.5C445.91 286.73 442.436 284.176 438.68 284.794L425.064 287.037C421.868 287.352 414.184 287.137 410.497 286.978L410.501 287.014C410.485 287.011 410.469 287.009 410.454 287.006L395.407 318.204C397.598 322.967 400.5 327.692 403.857 331.869C404.124 332.308 404.452 332.734 404.848 333.141L405.373 333.681C408.228 336.961 411.364 339.823 414.639 341.987C417.696 344.274 420.947 346.313 424.36 348.083L426.677 349.283C429.886 350.947 433.888 349.894 435.854 346.869L437.024 345.07C437.607 344.174 437.952 343.197 438.074 342.213L439.812 343.082C443.216 344.786 447.423 343.442 449.208 340.08L449.982 338.622C450.84 337.007 450.983 335.22 450.523 333.611C453.834 334.971 457.741 333.6 459.445 330.392L460.219 328.934C462.004 325.572 460.691 321.464 457.287 319.76L455.809 319.02Z" fill="#FED7AA"/>
<path d="M444.858 297.938C442.768 298.742 438.022 300.32 435.764 300.202" stroke="#1F2937" stroke-width="2.4" stroke-linecap="round"/>
<path d="M455.941 318.813C452.406 317.687 444.753 315.105 442.42 313.785" stroke="#1F2937" stroke-width="2.4" stroke-linecap="round"/>
<path d="M450.564 333.929C447.234 332.294 440.045 328.612 437.932 326.961" stroke="#1F2937" stroke-width="2.4" stroke-linecap="round"/>
<path d="M437.857 342.703C434.709 340.74 427.93 336.348 425.996 334.492" stroke="#1F2937" stroke-width="2.4" stroke-linecap="round"/>
<path d="M264.673 222.066C277.493 205.197 298.692 201.542 307.689 201.823L278.168 268.877C276.2 276.749 270.746 294.687 264.673 303.458C258.6 312.23 226.015 316.798 207.74 323.265L184.967 298.819L236.417 272.672C240.494 262.832 251.852 238.935 264.673 222.066Z" fill="#FED7AA"/>
<path fill-rule="evenodd" clip-rule="evenodd" d="M163.96 319.02C161.917 318.613 160.069 317.319 159.049 315.349L158.291 313.883C156.541 310.502 157.897 306.409 161.32 304.741L172.496 299.294C173.271 298.813 174.086 298.356 174.926 297.908C173.532 296.399 172.797 294.302 173.101 292.135L173.33 290.5C173.858 286.73 177.332 284.176 181.089 284.794L194.704 287.037C197.9 287.352 205.584 287.137 209.272 286.978L209.268 287.014C209.284 287.011 209.299 287.009 209.315 287.006L224.361 318.204C222.171 322.967 219.269 327.692 215.911 331.869C215.645 332.308 215.316 332.734 214.921 333.141L214.396 333.681C211.541 336.961 208.405 339.823 205.129 341.987C202.072 344.274 198.822 346.313 195.408 348.083L193.092 349.283C189.883 350.947 185.881 349.894 183.914 346.869L182.744 345.07C182.161 344.174 181.817 343.197 181.694 342.213L179.957 343.082C176.553 344.786 172.346 343.442 170.56 340.08L169.786 338.622C168.929 337.007 168.786 335.22 169.246 333.611C165.934 334.971 162.027 333.6 160.324 330.392L159.55 328.934C157.765 325.572 159.077 321.464 162.481 319.76L163.96 319.02Z" fill="#FED7AA"/>
<path d="M174.91 297.938C177.001 298.742 181.746 300.32 184.004 300.202" stroke="#1F2937" stroke-width="2.4" stroke-linecap="round"/>
<path d="M163.827 318.813C167.362 317.687 175.016 315.105 177.349 313.785" stroke="#1F2937" stroke-width="2.4" stroke-linecap="round"/>
<path d="M169.204 333.928C172.535 332.293 179.724 328.611 181.836 326.96" stroke="#1F2937" stroke-width="2.4" stroke-linecap="round"/>
<path d="M181.911 342.703C185.058 340.739 191.838 336.348 193.772 334.492" stroke="#1F2937" stroke-width="2.4" stroke-linecap="round"/>
<path fill-rule="evenodd" clip-rule="evenodd" d="M307.946 219.257C315.865 219.257 322.284 212.837 322.284 204.918C322.284 204.207 322.233 203.507 322.133 202.824C332.349 204.763 345.828 210.081 355.01 222.194C367.831 239.109 379.189 263.07 383.266 272.937L355.01 303.805C350.37 297.086 346.092 285.001 343.453 276.152V312.3H276.821V273.843C274.278 282.778 269.649 296.48 264.591 303.805L236.335 272.937C240.412 263.07 251.77 239.109 264.591 222.194C272.67 211.535 284.077 206.138 293.66 203.674C293.625 204.084 293.607 204.499 293.607 204.918C293.607 212.837 300.027 219.257 307.946 219.257Z" fill="#8DD7E2"/>
<rect x="298.581" y="193.374" width="18.5559" height="15.1821" fill="#FED7AA"/>
<circle cx="38.5708" cy="320.507" r="20.2428" transform="rotate(-22.9297 38.5708 320.507)" fill="#FFF7ED" stroke="#EA580C" stroke-width="4.21725"/>
<rect x="29.9414" y="303.958" width="2.40155" height="18.1424" rx="1.20077" transform="rotate(-22.9297 29.9414 303.958)" fill="#EA580C"/>
<rect x="41.499" y="309.113" width="2.35632" height="11.5585" rx="1.17816" transform="rotate(22.3107 41.499 309.113)" fill="#EA580C"/>
<circle cx="38.2131" cy="320.178" r="2.12823" transform="rotate(-22.9297 38.2131 320.178)" fill="#EA580C"/>
<path d="M322.198 202.651C322.198 210.57 315.778 218.677 307.859 218.677C299.94 218.677 293.521 211.508 293.521 203.495" stroke="#1F2937" stroke-width="2.4"/>
<path d="M343.284 276.453C346.517 285.028 353.406 302.431 355.092 303.443C359.816 299.732 377.303 279.827 383.348 272.658L371.961 249.041" stroke="#1F2937" stroke-width="2.4"/>
<path d="M343.284 276.453V300.491" stroke="#1F2937" stroke-width="2.4"/>
<path d="M276.651 273.923C273.418 282.498 266.108 302.431 264.421 303.443C259.698 299.732 242.211 279.827 236.166 272.658L247.552 249.041" stroke="#1F2937" stroke-width="2.4"/>
<path d="M276.651 274.344L276.23 300.491" stroke="#1F2937" stroke-width="2.4"/>
</svg>
