<svg width="24" height="24" viewBox="0 0 24 24" fill="none" xmlns="http://www.w3.org/2000/svg">
<path fill-rule="evenodd" clip-rule="evenodd" d="M8.58958 7.31547C8.10345 6.82934 8.10345 6.04116 8.58958 5.55503C9.07571 5.0689 9.86389 5.0689 10.35 5.55503L17.6948 12.8999C17.7334 12.835 17.7815 12.6999 17.7815 12.4832C17.7815 12.4103 17.6877 12.1812 17.5561 11.8595C17.0741 10.6819 16.0844 8.26354 17.3288 7.73022C18.4963 7.22986 19.418 9.8022 20.094 11.6885C20.3353 12.3619 20.5452 12.9478 20.7239 13.2753C20.7451 13.3143 20.7671 13.3544 20.7898 13.3956C21.4904 14.67 22.7748 17.0064 19.7054 20.4048C16.5367 23.9129 11.8969 22.2154 10.3126 20.6311C9.58144 19.8999 8.88792 19.1838 8.26683 18.5349C8.26181 18.5301 8.25681 18.5252 8.25185 18.5202L3.61069 13.879C3.12456 13.3929 3.12456 12.6047 3.61069 12.1186C4.09682 11.6325 4.885 11.6325 5.37113 12.1186L8.84618 15.5936L9.01749 15.4387L3.83662 10.2578C3.35049 9.77165 3.35049 8.98347 3.83662 8.49734C4.32275 8.01121 5.11092 8.01121 5.59706 8.49734L10.866 13.7662L11.0376 13.6109L5.4212 7.99446C4.93507 7.50832 4.93507 6.72015 5.4212 6.23402C5.90733 5.74788 6.6955 5.74788 7.18164 6.23402L12.8861 11.9385L13.0575 11.7834L8.58958 7.31547Z" fill="#EA580C"/>
<path d="M12.3975 2.9707C12.8189 2.95467 13.8212 3.11913 14.4588 3.9052C15.0965 4.69128 15.2717 5.65701 15.2795 6.04162" stroke="#FACC15" stroke-width="1.19251" stroke-linecap="round"/>
<path d="M15.1709 1.29346C15.4316 1.28404 16.0519 1.38818 16.4474 1.88013C16.843 2.37208 16.9528 2.97561 16.9582 3.21588" stroke="#FACC15" stroke-width="1.19251" stroke-linecap="round"/>
<path d="M7.33691 20.6328C6.91914 20.6905 5.90549 20.6262 5.1931 19.9071C4.48072 19.1881 4.21075 18.2444 4.16481 17.8625" stroke="#FACC15" stroke-width="1.19251" stroke-linecap="round"/>
<path d="M4.74316 22.5767C4.48469 22.6119 3.85714 22.5697 3.41477 22.1193C2.97241 21.669 2.80343 21.0793 2.77424 20.8407" stroke="#FACC15" stroke-width="1.19251" stroke-linecap="round"/>
</svg>
