<svg width="32" height="30" viewBox="0 0 32 30" fill="none" xmlns="http://www.w3.org/2000/svg">
<path d="M28.353 0.187899C26.6132 0.807148 25.3305 2.45848 24.5786 5.08292C24.3279 5.93807 23.458 9.91896 23.1337 11.644C22.9715 12.5581 22.9272 12.6319 22.8388 12.2338C22.7798 11.9831 22.6176 10.9068 22.4849 9.83049C21.8952 5.1124 20.922 2.5322 19.4329 1.75076C19.2117 1.63281 18.7252 1.54435 18.3566 1.54435C16.4841 1.54435 15.9681 3.78544 16.1155 11.2754C16.1892 15.448 16.5726 19.8564 17.1771 23.5867C17.6341 26.447 18.4156 29.2484 18.8726 29.7054C19.3444 30.1773 19.9637 30.0741 20.6567 29.4548C21.4971 28.6881 23.3843 25.7835 24.6228 23.336C25.876 20.8885 28.412 15.2121 29.5473 12.337C31.1102 8.37084 31.9948 4.59636 31.7884 2.70913C31.5525 0.556499 30.1813 -0.446095 28.353 0.187899ZM28.353 0.998819C28.2056 1.19049 27.8223 1.57384 27.4831 1.88346C26.6722 2.60592 26.1267 3.84442 25.1978 7.07336C24.785 8.53302 24.4164 9.75677 24.3722 9.80101C24.1362 10.0517 25.301 5.36305 25.8023 3.99186C26.2299 2.88605 27.0703 1.6623 27.7928 1.11677C28.5005 0.585987 28.7216 0.541756 28.353 0.998819ZM29.9896 1.33793C30.314 1.64756 30.2845 1.94244 29.9749 1.6623C29.8274 1.54435 29.5768 1.36742 29.4146 1.27896C29.1197 1.11677 29.1197 1.11677 29.4441 1.10203C29.621 1.10203 29.8717 1.20524 29.9896 1.33793ZM28.8396 1.94244C27.8075 5.59896 23.0599 21.1244 23.0304 20.9622C22.9715 20.6674 23.3401 18.7211 23.7529 17.173C24.3869 14.7697 28.1319 2.63541 28.412 2.08988C28.6332 1.64756 28.9575 1.54435 28.8396 1.94244ZM18.1207 2.44374C17.8405 2.62066 17.7668 2.47322 18.0027 2.19309C18.1354 2.0309 18.2091 2.00141 18.2534 2.13411C18.2976 2.23732 18.2239 2.37001 18.1207 2.44374ZM29.8569 3.16619C29.739 4.02135 29.3261 5.84961 29.2672 5.79063C29.2524 5.76114 29.2967 4.89124 29.3851 3.85916C29.5326 2.20783 29.5768 2.00141 29.7537 2.23732C29.8864 2.41425 29.9159 2.70913 29.8569 3.16619ZM19.1675 2.73862C19.1675 2.82708 19.1085 2.84182 19.0201 2.79759C18.9463 2.75336 18.8726 2.63541 18.8726 2.56169C18.8726 2.47322 18.9463 2.45848 19.0201 2.50271C19.1085 2.54694 19.1675 2.6649 19.1675 2.73862ZM26.3921 6.58681C25.7286 8.70995 24.9324 11.3196 24.6081 12.3665C24.2837 13.3986 23.9888 14.2242 23.9446 14.1947C23.8561 14.0915 25.0061 9.53561 25.8171 6.77848C26.51 4.46367 27.3357 2.44374 27.5126 2.62066C27.5569 2.6649 27.0556 4.44892 26.3921 6.58681ZM18.1059 6.38039C18.1502 10.7594 18.5335 19.9744 18.7399 21.67C18.9463 23.4392 19.2412 24.8252 19.6983 26.1964C19.9637 27.022 20.0374 27.4054 19.9342 27.5971C19.8015 27.8035 19.7573 27.7592 19.6246 27.2727C18.8431 24.3534 18.1502 20.7116 17.7373 17.4679C17.3982 14.7697 17.354 4.69957 17.6636 3.638C17.7668 3.29889 17.8995 3.01875 17.9585 3.01875C18.0175 3.01875 18.0765 4.52264 18.1059 6.38039ZM19.1675 3.638C19.1675 5.52524 19.8015 18.0134 20.0522 20.859C20.1259 21.7879 20.1406 23.1444 20.0816 23.8816L19.9637 25.2085L19.7278 24.1027C19.3444 22.4514 19.1823 20.9622 19.0348 17.6891C18.7842 12.5729 18.5188 3.52005 18.622 3.2694C18.6662 3.1367 18.8137 3.01875 18.9463 3.01875C19.1085 3.01875 19.1675 3.18094 19.1675 3.638ZM28.7511 5.17138C28.471 6.80797 28.0582 8.37084 27.0703 11.4228C26.5543 13.0005 25.6254 15.8608 25.0209 17.7628C24.4016 19.6648 23.7971 21.3603 23.6792 21.5225C23.5023 21.7437 23.5317 21.5815 23.7529 20.859C23.9151 20.3282 25.0651 16.4211 26.3331 12.1601C28.9428 3.31363 28.7364 3.99186 28.8396 4.08032C28.8838 4.12455 28.8396 4.62585 28.7511 5.17138ZM30.1518 5.53998C29.4588 8.23814 27.5274 14.2684 26.9966 15.4037C26.8197 15.7723 26.7165 15.9345 26.7754 15.7723C26.8197 15.6102 27.2915 14.2095 27.7928 12.6761C28.5005 10.5235 30.0928 4.95022 30.2403 4.09507C30.255 4.03609 30.2993 4.12455 30.3287 4.28674C30.3582 4.46367 30.2845 5.02394 30.1518 5.53998ZM20.1848 7.14708C20.3618 8.79841 20.406 14.3274 20.2438 14.1652C20.1259 14.062 19.772 7.61889 19.7868 5.82012C19.7868 4.53739 19.9637 5.14189 20.1848 7.14708ZM30.7416 5.76114C30.6384 6.49834 29.6505 9.71254 29.5621 9.62408C29.4883 9.5651 30.7121 5.08292 30.8005 5.08292C30.83 5.08292 30.8005 5.3778 30.7416 5.76114ZM21.8067 10.7299C21.8214 11.069 21.7625 11.2607 21.674 11.2017C21.6003 11.1575 21.5413 10.6267 21.5413 10.0517C21.556 9.09329 21.5708 9.04906 21.6887 9.57985C21.7477 9.90421 21.8067 10.4203 21.8067 10.7299ZM20.9663 19.8269C20.8483 20.8885 20.8188 20.5641 20.8041 17.6743C20.8041 15.8018 20.8336 13.6492 20.9073 12.8825C20.9958 11.7325 21.0105 12.1158 21.0547 15.0351C21.0695 16.9814 21.0253 19.1487 20.9663 19.8269ZM22.5586 17.7186C22.5586 17.7923 22.4849 17.9397 22.4112 18.0577C22.2932 18.2346 22.2638 18.2198 22.2638 17.9397C22.2638 17.7628 22.3375 17.6153 22.4112 17.6153C22.4997 17.6153 22.5586 17.6596 22.5586 17.7186ZM21.5413 21.6257L21.4086 22.1123L21.3939 21.5078C21.3791 21.1834 21.4233 20.859 21.4971 20.8001C21.674 20.6231 21.7035 21.0802 21.5413 21.6257ZM18.8726 26.4618C19.1823 27.715 19.4919 28.8798 19.5361 29.042C19.6393 29.3221 19.6246 29.3221 19.4182 29.0272C19.0938 28.5996 18.4893 26.447 18.1354 24.4861C17.7963 22.6431 17.7668 21.7879 18.0912 23.2181C18.2091 23.7489 18.563 25.2085 18.8726 26.4618ZM23.7234 23.3508C23.4728 23.8521 23.2221 24.2207 23.1926 24.1912C23.1484 24.1469 23.3401 23.7194 23.6055 23.2328C23.8561 22.7315 24.1068 22.3629 24.1362 22.3924C24.1805 22.4366 23.9888 22.8642 23.7234 23.3508ZM21.8362 25.5919C21.5118 26.1816 21.4381 26.1227 21.4971 25.3707C21.556 24.7662 21.5708 24.7367 21.8214 24.9431C22.0721 25.1495 22.0721 25.1938 21.8362 25.5919ZM20.8778 27.022C20.8336 27.9214 20.5829 28.8061 20.406 28.6439C20.347 28.5702 20.7894 26.0194 20.8778 26.0194C20.9073 26.0194 20.9073 26.4765 20.8778 27.022Z" fill="black"/>
<path d="M5.52901 4.22778C5.30785 4.40471 5.02771 4.75856 4.92451 5.02396C4.6886 5.59897 4.64437 7.97276 4.86553 9.27024C4.93925 9.75679 4.98348 10.1696 4.95399 10.1991C4.92451 10.2286 4.54116 9.74205 4.09884 9.10805C2.90457 7.41249 1.87249 6.55734 1.01734 6.55734C0.530785 6.55734 0 7.20607 0 7.81058C0 9.74205 3.30266 16.1115 5.21939 17.8808C5.77966 18.3968 5.98608 18.5 6.48737 18.5C7.00341 18.5 7.12137 18.4263 7.51946 17.8955C8.15345 17.0256 8.52205 15.9198 8.84642 13.8999C9.61311 9.24075 9.274 5.98232 7.88806 4.5374C7.34253 3.97713 7.19509 3.90341 6.60533 3.90341C6.14826 3.90341 5.80915 4.00662 5.52901 4.22778ZM7.72587 6.26246C7.85857 6.82273 7.94703 7.66314 7.94703 8.13495L7.93229 8.9901L7.78485 8.32662C7.71113 7.95802 7.54894 7.13235 7.41625 6.48362C7.28355 5.83488 7.15085 5.20089 7.10662 5.08293C7.0329 4.89126 7.06239 4.89126 7.25406 5.05344C7.38676 5.15665 7.60792 5.70218 7.72587 6.26246ZM5.97133 7.79583C6.03031 9.28498 6.04505 10.5972 6.01556 10.7004C5.7944 11.3639 5.35208 6.91119 5.51427 5.76116C5.72068 4.44894 5.86812 5.11242 5.97133 7.79583ZM1.28273 7.41249C1.13529 7.55993 1.03208 7.81058 1.03208 7.95802C1.03208 8.16444 0.98785 8.19392 0.869898 8.07597C0.604505 7.81058 0.84041 7.1471 1.20901 7.1471C1.50389 7.1471 1.50389 7.16184 1.28273 7.41249ZM1.91672 7.5157C2.07891 7.70737 2.06416 7.72211 1.85775 7.64839C1.72505 7.60416 1.62184 7.50095 1.62184 7.42723C1.62184 7.23556 1.71031 7.26505 1.91672 7.5157ZM6.91495 9.90423C7.09188 11.9094 7.10662 14.1063 6.94444 14.6666C6.78225 15.1678 6.6643 13.5755 6.57584 10.0222C6.50212 6.98491 6.6643 6.94068 6.91495 9.90423ZM3.62703 11.1427C4.79181 13.2954 5.47004 14.7845 5.04246 14.2537C4.73283 13.8556 2.2116 9.03433 2.2116 8.82792C2.2116 8.60676 2.60969 9.25549 3.62703 11.1427ZM2.87509 11.4081C3.56806 12.7793 4.52642 14.5191 5.02771 15.2563C5.51427 16.0083 5.82389 16.5833 5.72068 16.5538C5.13092 16.3621 1.04683 8.91638 1.53338 8.91638C1.57761 8.91638 2.18212 10.0369 2.87509 11.4081ZM2.38853 11.9242C2.69816 12.5729 2.91932 13.1184 2.88983 13.1627C2.80137 13.2364 1.53338 10.5972 1.41543 10.0959C1.31222 9.69781 1.40068 9.86 2.38853 11.9242ZM4.57065 11.2017C4.96874 11.8947 5.30785 12.5139 5.30785 12.5876C5.30785 12.6614 5.51427 12.9268 5.75017 13.1921C6.08928 13.5608 6.19249 13.7967 6.19249 14.2685C6.19249 14.5928 6.163 14.8287 6.11877 14.7845C5.98608 14.6518 3.68601 9.94846 3.75973 9.94846C3.78922 9.94846 4.15782 10.5087 4.57065 11.2017ZM3.24369 13.6345C3.33215 13.7967 3.36164 13.9294 3.33215 13.9294C3.28792 13.9294 3.18471 13.7967 3.09625 13.6345C3.00778 13.4723 2.97829 13.3396 3.00778 13.3396C3.05201 13.3396 3.15522 13.4723 3.24369 13.6345ZM6.70853 17.7628C6.48737 17.9987 6.39891 18.0282 6.22198 17.8808C6.03031 17.7186 6.0598 17.6743 6.35468 17.6006C6.94444 17.4384 6.98867 17.4532 6.70853 17.7628Z" fill="black"/>
</svg>
